<svg width="6" height="14" viewBox="0 0 6 14" fill="none" xmlns="http://www.w3.org/2000/svg">
<path d="M1.25 1.58325H4.58333C4.92851 1.58325 5.20833 1.30343 5.20833 0.958252C5.20833 0.613074 4.92851 0.333252 4.58333 0.333252H1.25C0.904822 0.333252 0.625 0.613074 0.625 0.958252C0.625 1.30343 0.904822 1.58325 1.25 1.58325Z" fill="#404656"/>
<path d="M4.58333 6.16659H1.25C0.904822 6.16659 0.625 6.44641 0.625 6.79159C0.625 7.13676 0.904822 7.41659 1.25 7.41659H4.58333C4.92851 7.41659 5.20833 7.13676 5.20833 6.79159C5.20833 6.44641 4.92851 6.16659 4.58333 6.16659Z" fill="#404656"/>
<path d="M4.58333 11.9999H1.25C0.904822 11.9999 0.625 12.2797 0.625 12.6249C0.625 12.9701 0.904822 13.2499 1.25 13.2499H4.58333C4.92851 13.2499 5.20833 12.9701 5.20833 12.6249C5.20833 12.2797 4.92851 11.9999 4.58333 11.9999Z" fill="#404656"/>
</svg>
