<svg width="19" height="18" viewBox="0 0 19 18" fill="none" xmlns="http://www.w3.org/2000/svg">
<path fill-rule="evenodd" clip-rule="evenodd" d="M2.74998 1.10049e-10H5.83998C6.43845 -5.91077e-06 7.01227 0.238419 7.43451 0.662541C7.85676 1.08666 8.09264 1.66153 8.08998 2.26V5.34C8.08998 6.58264 7.08262 7.59 5.83998 7.59H2.74998C1.50734 7.59 0.499978 6.58264 0.499978 5.34V2.26C0.497319 1.66153 0.733197 1.08666 1.15544 0.662541C1.57769 0.238419 2.1515 -5.91077e-06 2.74998 1.10049e-10ZM5.83998 6.08C6.25194 6.07461 6.58459 5.74196 6.58998 5.33V2.26C6.58998 1.84579 6.25419 1.51 5.83998 1.51H2.74998C2.33576 1.51 1.99998 1.84579 1.99998 2.26V5.33C2.00536 5.74196 2.33802 6.07461 2.74998 6.08H5.83998Z" fill="#404656"/>
<path fill-rule="evenodd" clip-rule="evenodd" d="M13.16 1.10049e-10H16.25C16.8485 -5.91077e-06 17.4223 0.238419 17.8445 0.662541C18.2668 1.08666 18.5027 1.66153 18.5 2.26V5.34C18.5 6.58264 17.4926 7.59 16.25 7.59H13.16C11.9174 7.59 10.91 6.58264 10.91 5.34V2.25C10.91 1.00736 11.9174 1.10049e-10 13.16 1.10049e-10ZM16.25 6.08C16.662 6.07461 16.9946 5.74196 17 5.33V2.26C17 1.84579 16.6642 1.51 16.25 1.51H13.16C12.7458 1.51 12.41 1.84579 12.41 2.26V5.33C12.4154 5.74196 12.748 6.07461 13.16 6.08H16.25Z" fill="#404656"/>
<path fill-rule="evenodd" clip-rule="evenodd" d="M2.74998 10.41H5.83998C7.08262 10.41 8.08998 11.4174 8.08998 12.66V15.75C8.08998 16.9926 7.08262 18 5.83998 18H2.74998C2.1515 18 1.57769 17.7616 1.15544 17.3375C0.733197 16.9133 0.497319 16.3385 0.499978 15.74V12.66C0.499978 11.4174 1.50734 10.41 2.74998 10.41ZM5.83998 16.49C6.25419 16.49 6.58998 16.1542 6.58998 15.74V12.66C6.58459 12.248 6.25194 11.9154 5.83998 11.91H2.74998C2.33802 11.9154 2.00536 12.248 1.99998 12.66V15.74C1.99998 16.1542 2.33576 16.49 2.74998 16.49H5.83998Z" fill="#404656"/>
<path fill-rule="evenodd" clip-rule="evenodd" d="M13.16 10.41H16.25C17.4926 10.41 18.5 11.4174 18.5 12.66V15.74C18.5026 16.3385 18.2668 16.9133 17.8445 17.3375C17.4223 17.7616 16.8485 18 16.25 18H13.16C12.5615 18 11.9877 17.7616 11.5654 17.3375C11.1432 16.9133 10.9073 16.3385 10.91 15.74V12.66C10.91 11.4174 11.9173 10.41 13.16 10.41ZM16.25 16.49C16.6642 16.49 17 16.1542 17 15.74V12.66C16.9946 12.248 16.6619 11.9154 16.25 11.91H13.16C12.748 11.9154 12.4154 12.248 12.41 12.66V15.74C12.41 16.1542 12.7458 16.49 13.16 16.49H16.25Z" fill="#404656"/>
</svg>
