<svg width="17" height="20" viewBox="0 0 17 20" fill="none" xmlns="http://www.w3.org/2000/svg">
<path fill-rule="evenodd" clip-rule="evenodd" d="M16.03 7.44001L9.03 0.440008C8.88266 0.313733 8.69401 0.246101 8.5 0.250008H5.5C2.87665 0.250008 0.75 2.37666 0.75 5.00001V15C0.75 17.6234 2.87665 19.75 5.5 19.75H11.5C14.1234 19.75 16.25 17.6234 16.25 15V8.00001C16.2534 7.79163 16.1743 7.59035 16.03 7.44001ZM9.25 2.79001L13.71 7.25001H10.5C9.80964 7.25001 9.25 6.69036 9.25 6.00001V2.79001ZM2.25 15C2.25549 16.7927 3.70735 18.2445 5.5 18.25H11.5C13.2926 18.2445 14.7445 16.7927 14.75 15V8.75001H10.5C8.98122 8.75001 7.75 7.51879 7.75 6.00001V1.75001H5.5C3.70735 1.7555 2.25549 3.20736 2.25 5.00001V15Z" fill="#404656"/>
</svg>
