<svg width="21" height="21" viewBox="0 0 21 21" fill="none" xmlns="http://www.w3.org/2000/svg">
<path fill-rule="evenodd" clip-rule="evenodd" d="M0.5 10.0802C0.5 4.5132 5.01297 0.000232933 10.58 0.000232933C11.3206 -0.0034878 12.0591 0.0804288 12.78 0.250233C9.92684 1.06715 8.05951 3.79959 8.33498 6.75458C8.61045 9.70957 10.9507 12.0498 13.9057 12.3253C16.8606 12.6007 19.5931 10.7334 20.41 7.88023C20.5798 8.60114 20.6637 9.33961 20.66 10.0802C20.66 15.6473 16.147 20.1602 10.58 20.1602C5.01297 20.1602 0.5 15.6473 0.5 10.0802ZM9.04296 11.6164C6.42799 9.00391 6.04836 4.89792 8.14 1.85023C4.20314 3.01949 1.64688 6.81452 2.04276 10.9022C2.43865 14.9899 5.67565 18.2239 9.76373 18.616C13.8518 19.008 17.6444 16.4482 18.81 12.5102C15.7643 14.6047 11.6579 14.229 9.04296 11.6164Z" fill="#404656"/>
</svg>
