<svg width="94" height="44" viewBox="0 0 94 44" fill="none" xmlns="http://www.w3.org/2000/svg">
<path d="M0.333333 41C0.333333 42.4728 1.52724 43.6667 3 43.6667C4.47276 43.6667 5.66667 42.4728 5.66667 41C5.66667 39.5272 4.47276 38.3333 3 38.3333C1.52724 38.3333 0.333333 39.5272 0.333333 41ZM22.0551 16.8182L22.4317 16.4893L22.0353 16.0355L21.6624 16.5087L22.0551 16.8182ZM32.4488 28.7172L32.0723 29.0461L32.4427 29.4702L32.82 29.0522L32.4488 28.7172ZM41.4567 18.7374L41.8279 18.4024L41.4567 17.9911L41.0855 18.4024L41.4567 18.7374ZM59.126 38.3131L58.7548 38.6481L59.126 39.0594L59.4972 38.6481L59.126 38.3131ZM88.3333 3C88.3333 4.47276 89.5272 5.66667 91 5.66667C92.4728 5.66667 93.6667 4.47276 93.6667 3C93.6667 1.52724 92.4728 0.333333 91 0.333333C89.5272 0.333333 88.3333 1.52724 88.3333 3ZM3.39272 41.3095L22.4478 17.1276L21.6624 16.5087L2.60728 40.6905L3.39272 41.3095ZM21.6785 17.1471L32.0723 29.0461L32.8254 28.3882L22.4317 16.4893L21.6785 17.1471ZM32.82 29.0522L41.8279 19.0724L41.0855 18.4024L32.0777 28.3822L32.82 29.0522ZM41.0855 19.0724L58.7548 38.6481L59.4972 37.9781L41.8279 18.4024L41.0855 19.0724ZM59.4972 38.6481L91.3712 3.33502L90.6288 2.66498L58.7548 37.9781L59.4972 38.6481Z" fill="#60BF9D"/>
</svg>
